<?xml version="1.0" encoding="utf-8"?>
<!-- Generator: Adobe Illustrator 16.0.0, SVG Export Plug-In . SVG Version: 6.00 Build 0)  -->
<!DOCTYPE svg PUBLIC "-//W3C//DTD SVG 1.1//EN" "http://www.w3.org/Graphics/SVG/1.1/DTD/svg11.dtd">
<svg version="1.1" xmlns="http://www.w3.org/2000/svg" xmlns:xlink="http://www.w3.org/1999/xlink" x="0px" y="0px" width="293px"
	 height="83px" viewBox="6.5 0 293 83" enable-background="new 6.5 0 293 83" xml:space="preserve">
<g id="Layer_2" display="none">
	<rect x="-34.5" y="-69" display="inline" fill="#2199E8" width="374" height="249"/>
</g>
<g id="Layer_1">
	<g enable-background="new    ">
		<path fill="#FFFFFF" d="M184.368,62.495h-7.141v3.664h6.106c0.179,0,0.269,0.083,0.269,0.249v1.718
			c0,0.179-0.09,0.269-0.269,0.269h-6.106v5.713c0,0.165-0.083,0.248-0.249,0.248h-2.008c-0.166,0-0.249-0.083-0.249-0.248v-13.6
			c0-0.166,0.083-0.249,0.249-0.249h9.397c0.166,0,0.249,0.083,0.249,0.249v1.739C184.616,62.412,184.533,62.495,184.368,62.495z"/>
		<path fill="#FFFFFF" d="M192.481,74.355h-2.008c-0.166,0-0.248-0.083-0.248-0.248v-13.6c0-0.166,0.082-0.249,0.248-0.249h2.008
			c0.166,0,0.249,0.083,0.249,0.249v13.6C192.73,74.272,192.647,74.355,192.481,74.355z"/>
		<path fill="#FFFFFF" d="M207.55,74.355h-7.721c-0.165,0-0.248-0.083-0.248-0.248v-13.6c0-0.166,0.083-0.249,0.248-0.249h2.008
			c0.166,0,0.249,0.083,0.249,0.249v11.611h5.464c0.166,0,0.249,0.084,0.249,0.249v1.739
			C207.799,74.272,207.716,74.355,207.55,74.355z"/>
		<path fill="#FFFFFF" d="M226.801,74.355h-1.925c-0.165,0-0.248-0.083-0.248-0.248v-8.984l-3.395,5.63
			c-0.111,0.166-0.2,0.248-0.269,0.248h-1.574c-0.083,0-0.172-0.082-0.269-0.248l-3.395-5.63v8.984c0,0.165-0.083,0.248-0.249,0.248
			h-1.925c-0.166,0-0.248-0.083-0.248-0.248v-13.6c0-0.166,0.083-0.249,0.248-0.249h1.925c0.055,0,0.138,0.083,0.249,0.249
			l4.45,7.39l4.451-7.39c0.096-0.166,0.179-0.249,0.248-0.249h1.925c0.166,0,0.248,0.083,0.248,0.249v13.6
			C227.049,74.272,226.966,74.355,226.801,74.355z"/>
		<path fill="#FFFFFF" d="M236.156,74.355h-2.007c-0.166,0-0.248-0.083-0.248-0.248v-13.6c0-0.166,0.083-0.249,0.248-0.249h2.007
			c0.166,0,0.249,0.083,0.249,0.249v13.6C236.405,74.272,236.322,74.355,236.156,74.355z"/>
	</g>
	<g enable-background="new    ">
		<path fill="#FFFFFF" d="M257.933,74.355h-1.843c-0.082,0-0.145-0.027-0.186-0.083l-7.514-9.812v9.646
			c0,0.165-0.083,0.248-0.249,0.248H246.3c-0.166,0-0.249-0.083-0.249-0.248v-13.6c0-0.166,0.083-0.249,0.249-0.249h1.842
			c0.083,0,0.166,0.042,0.249,0.124l7.451,9.75v-9.625c0-0.166,0.083-0.249,0.248-0.249h1.843c0.179,0,0.269,0.083,0.269,0.249v13.6
			C258.201,74.272,258.111,74.355,257.933,74.355z"/>
	</g>
	<g enable-background="new    ">
		<path fill="#FFFFFF" d="M277.865,74.355h-2.008c-0.166,0-0.248-0.083-0.248-0.248v-0.436c-1.09,0.594-2.284,0.891-3.58,0.891
			c-2.029,0-3.754-0.704-5.176-2.111c-1.408-1.408-2.111-3.126-2.111-5.154c0-1.973,0.711-3.671,2.133-5.092
			c1.42-1.421,3.139-2.132,5.154-2.132c1.488,0,2.966,0.49,4.429,1.47c0.138,0.097,0.159,0.214,0.062,0.352l-1.055,1.615
			c-0.097,0.138-0.215,0.158-0.352,0.062c-1.063-0.731-2.092-1.098-3.084-1.098c-1.285,0-2.389,0.484-3.312,1.45
			c-0.926,0.938-1.388,2.063-1.388,3.374c0,1.38,0.456,2.532,1.366,3.457c0.925,0.924,2.035,1.387,3.334,1.387
			c1.448,0,2.641-0.393,3.58-1.18v-1.636H272.4c-0.164,0-0.248-0.083-0.248-0.248v-1.863c0-0.179,0.084-0.269,0.248-0.269h5.465
			c0.166,0,0.248,0.09,0.248,0.269v6.894C278.113,74.272,278.031,74.355,277.865,74.355z"/>
	</g>
	<g enable-background="new    ">
		<path fill="#A9ECFF" d="M11.329,44.879V26.963c0-3.783,0.861-6.463,2.583-8.043c1.722-1.579,4.745-2.369,9.07-2.369
			c2.223,0,4.033,0.138,5.43,0.414c0.366,0.056,0.664,0.204,0.895,0.446c0.23,0.241,0.345,0.521,0.345,0.839v2.278
			c0,0.373-0.119,0.68-0.355,0.922c-0.237,0.242-0.533,0.362-0.885,0.362h-0.752c-0.271,0-0.715-0.056-1.332-0.169
			c-0.617-0.113-1.108-0.17-1.475-0.17c-2.698,0-4.453,0.357-5.267,1.069c-0.813,0.713-1.22,2.189-1.22,4.428v0.32h7.362
			c0.366,0,0.667,0.119,0.904,0.355c0.237,0.237,0.356,0.539,0.356,0.905v2.42c0,0.366-0.119,0.665-0.356,0.895
			c-0.237,0.231-0.539,0.346-0.904,0.346h-7.362v12.669c0,0.366-0.119,0.665-0.356,0.896c-0.237,0.23-0.532,0.345-0.884,0.345
			h-4.555c-0.366,0-0.665-0.115-0.895-0.345C11.443,45.544,11.329,45.246,11.329,44.879z"/>
		<path fill="#A9ECFF" d="M31.319,44.879V18.219c0-0.366,0.118-0.667,0.355-0.905c0.237-0.237,0.532-0.356,0.885-0.356h4.556
			c0.366,0,0.664,0.119,0.895,0.356c0.23,0.237,0.346,0.539,0.346,0.905v26.661c0,0.366-0.119,0.665-0.356,0.896
			c-0.237,0.23-0.532,0.345-0.884,0.345H32.56c-0.366,0-0.664-0.115-0.895-0.345C31.434,45.544,31.319,45.246,31.319,44.879z"/>
		<path fill="#A9ECFF" d="M41.548,25.052c-0.041-0.108-0.061-0.21-0.061-0.305c0-0.19,0.068-0.366,0.204-0.529
			c0.204-0.244,0.476-0.373,0.815-0.386h4.26c0.394,0,0.771,0.132,1.13,0.396c0.36,0.263,0.595,0.591,0.704,0.983l2.664,8.623
			c0.665,2.12,1.341,3.588,2.027,4.403c0.686,0.815,1.497,1.223,2.435,1.223l4.018-14.247c0.108-0.393,0.323-0.721,0.643-0.985
			c0.32-0.264,0.676-0.396,1.071-0.396h4.306c0.34,0,0.604,0.13,0.795,0.388c0.136,0.177,0.204,0.368,0.204,0.572
			c0,0.082-0.014,0.17-0.041,0.266l-5.335,18.992c-0.951,3.362-2.128,5.76-3.533,7.197c-1.406,1.437-3.289,2.155-5.649,2.155
			c-2.061,0-3.823-0.136-5.288-0.407c-0.366-0.054-0.665-0.2-0.895-0.437c-0.231-0.237-0.346-0.512-0.346-0.824v-2.237
			c0-0.366,0.115-0.668,0.346-0.905c0.23-0.237,0.529-0.355,0.895-0.355h0.752c0.312,0,0.749,0.041,1.312,0.122
			c0.562,0.082,1.014,0.122,1.353,0.122c1.912,0,3.247-1.37,4.006-4.107c-2.309,0-4.237-0.694-5.785-2.083
			c-1.548-1.389-2.879-3.858-3.993-7.409L41.548,25.052z"/>
	</g>
	<g enable-background="new    ">
		<path fill="#FFFFFF" d="M67.767,25.621c-0.108-0.352-0.169-0.644-0.183-0.874c0-0.596,0.338-0.902,1.017-0.916h3.783
			c0.637,0,1.207,0.16,1.708,0.478c0.501,0.319,0.847,0.756,1.037,1.312l3.335,10.961l3.294-10.961
			c0.366-1.193,1.139-1.79,2.318-1.79h3.6c1.193,0,1.965,0.597,2.318,1.79l3.294,10.961l3.335-10.961
			c0.189-0.555,0.535-0.993,1.036-1.312c0.501-0.318,1.07-0.478,1.707-0.478h3.779c0.664,0,1.003,0.305,1.017,0.914
			c0,0.244-0.061,0.535-0.183,0.874l-6.16,18.71c-0.19,0.556-0.529,0.994-1.016,1.313s-1.009,0.478-1.564,0.478h-2.865
			c-0.556,0-1.085-0.166-1.586-0.498s-0.834-0.763-0.997-1.292l-3.904-12.12l-3.925,12.12c-0.163,0.529-0.495,0.959-0.996,1.292
			c-0.502,0.332-1.031,0.498-1.586,0.498h-2.867c-0.556,0-1.078-0.159-1.566-0.478c-0.488-0.319-0.827-0.756-1.017-1.312
			L67.767,25.621z"/>
	</g>
	<g enable-background="new    ">
		<path fill="#FFFFFF" d="M108.573,43.603c-2.088-1.949-3.132-4.8-3.132-8.551c0-3.751,1.05-6.627,3.152-8.627
			c2.101-2,5.009-2.999,8.724-2.999c3.742,0,6.657,0.996,8.745,2.987c2.087,1.991,3.132,4.847,3.132,8.567v1.187
			c0,0.375-0.119,0.684-0.356,0.927c-0.237,0.243-0.539,0.364-0.905,0.364H112.62c0.135,1.554,0.613,2.685,1.434,3.392
			c0.82,0.708,2.078,1.062,3.772,1.062c1.912,0,3.24-0.454,3.986-1.362c0.583-0.719,1.363-1.085,2.339-1.098h3.03
			c0.366,0,0.667,0.126,0.905,0.379c0.237,0.252,0.356,0.574,0.356,0.963c0,3.836-3.708,5.748-11.124,5.735
			C113.576,46.527,110.661,45.553,108.573,43.603z M112.58,32.841h9.457c-0.136-3.2-1.706-4.799-4.708-4.799
			C114.325,28.042,112.742,29.641,112.58,32.841z"/>
		<path fill="#FFFFFF" d="M132.936,19.65v-0.707c0-0.735,0.207-1.317,0.621-1.748c0.413-0.429,0.986-0.645,1.718-0.645h2.521
			c0.719,0,1.288,0.212,1.708,0.635c0.42,0.422,0.63,1.008,0.63,1.757v0.707c0,0.736-0.207,1.318-0.621,1.748
			c-0.414,0.43-0.986,0.645-1.718,0.645h-2.521c-0.719,0-1.288-0.215-1.708-0.645C133.146,20.968,132.936,20.386,132.936,19.65z
			 M133.018,44.886V25.684c0-0.364,0.119-0.661,0.356-0.89c0.237-0.23,0.532-0.344,0.885-0.344h4.555
			c0.366,0,0.664,0.118,0.895,0.354s0.346,0.53,0.346,0.88v19.202c0,0.364-0.119,0.661-0.356,0.89
			c-0.237,0.229-0.532,0.344-0.884,0.344h-4.555c-0.366,0-0.665-0.114-0.895-0.344C133.133,45.547,133.018,45.25,133.018,44.886z"/>
		<path fill="#FFFFFF" d="M143.877,34c0-3.362,1.06-5.965,3.179-7.81c2.119-1.843,5.158-2.765,9.116-2.765
			c1.967,0,4.009,0.22,6.126,0.661c2.116,0.441,3.711,0.98,4.783,1.617v18.832c0,3.023-0.996,5.257-2.989,6.701
			s-4.698,2.166-8.114,2.166c-3.783,0-6.646-0.451-8.592-1.353c-1.946-0.902-2.918-2.39-2.918-4.464
			c0-0.366,0.119-0.668,0.356-0.905c0.237-0.237,0.539-0.356,0.905-0.356h3.03c0.976,0,1.755,0.359,2.339,1.078
			c0.745,0.922,2.203,1.383,4.373,1.383c1.64,0,2.812-0.312,3.518-0.936c0.705-0.624,1.058-1.729,1.058-3.315v-0.956
			c-2.174,0.556-4.206,0.834-6.094,0.834c-3.013,0-5.445-0.929-7.296-2.786C144.803,39.769,143.877,37.227,143.877,34z M150.913,34
			c0,3.661,1.57,5.491,4.708,5.491c1.305,0,2.779-0.204,4.423-0.61V28.794c-1.168-0.312-2.602-0.461-4.301-0.447
			C152.523,28.333,150.913,30.217,150.913,34z"/>
		<path fill="#FFFFFF" d="M172.287,44.879V18.219c0-0.366,0.118-0.667,0.355-0.905c0.238-0.237,0.532-0.356,0.885-0.356h4.556
			c0.366,0,0.664,0.119,0.895,0.356c0.23,0.237,0.346,0.539,0.346,0.905v8.155c2.332-1.966,4.704-2.948,7.117-2.948
			c2.86,0,5.118,0.803,6.772,2.41c1.654,1.607,2.48,4.064,2.48,7.372v11.673c0,0.366-0.118,0.665-0.355,0.896
			c-0.237,0.23-0.539,0.345-0.905,0.345h-4.535c-0.366,0-0.665-0.119-0.895-0.356c-0.23-0.237-0.345-0.532-0.345-0.885V33.207
			c0-3.254-1.295-4.874-3.884-4.86c-1.695,0-3.511,0.969-5.45,2.908v13.625c0,0.366-0.12,0.665-0.357,0.896
			c-0.237,0.23-0.532,0.345-0.884,0.345h-4.556c-0.366,0-0.664-0.115-0.895-0.345C172.401,45.544,172.287,45.246,172.287,44.879z"/>
		<path fill="#FFFFFF" d="M200.676,37.376V18.219c0-0.366,0.119-0.667,0.356-0.905c0.237-0.237,0.532-0.356,0.885-0.356h4.555
			c0.366,0,0.665,0.119,0.895,0.355c0.23,0.236,0.346,0.538,0.346,0.903v6.775h5.673c0.367,0,0.664,0.116,0.895,0.347
			c0.23,0.232,0.346,0.531,0.346,0.899v2.43c0,0.368-0.119,0.667-0.355,0.898c-0.237,0.231-0.532,0.347-0.885,0.347h-5.673v7.554
			c0,1.4,0.325,2.48,0.977,3.241c0.65,0.762,1.518,1.143,2.603,1.143c0.366,0,0.854-0.041,1.464-0.122
			c0.61-0.082,1.051-0.122,1.323-0.122h0.752c0.366,0,0.667,0.112,0.905,0.336c0.237,0.224,0.356,0.514,0.356,0.869v2.115
			c0,0.303-0.119,0.566-0.356,0.791s-0.539,0.362-0.905,0.415c-1.383,0.263-3.187,0.396-5.409,0.396
			C203.591,46.541,200.676,43.49,200.676,37.376z"/>
	</g>
	<g>
		<path fill="#FFFFFF" d="M282.046,48.759l-0.012-0.264c0.004,0.088,0.01,0.176,0.015,0.262L282.046,48.759z"/>
	</g>
	<g>
		<path fill="#FFFFFF" d="M282.014,48.038l0.021,0.457C282.026,48.347,282.02,48.195,282.014,48.038"/>
	</g>
	<g>
		<path fill="#FFFFFF" d="M275.205,31.705c0.007-0.006,0.012-0.012,0.018-0.018c0.007-0.006,0.013-0.01,0.019-0.016L275.205,31.705z
			"/>
	</g>
	<g>
		<path fill="#A9ECFF" d="M216.916,5.407c-0.619-0.057-1.242,0.239-1.576,0.811c-0.336,0.571-0.289,1.261,0.062,1.771l29.042,42.351
			c0.322,0.471,0.832,0.812,1.439,0.906s1.195-0.076,1.645-0.427L263.52,38.37l10.197,7.368c0.604,0.438,1.431,0.52,2.132,0.141
			c0.7-0.379,1.085-1.115,1.052-1.861l0.047,1.021c-0.123-2.996,0.025-7.573,0.17-12.013c0.067-2.036,0.137-4.142,0.177-6.073
			l0.003-0.147l18.511-11.601c0.521-0.326,0.804-0.961,0.651-1.594c-0.15-0.633-0.689-1.071-1.303-1.127L216.916,5.407z
			 M275.566,25.623l-41.764-15.167c-0.391-0.142-0.623-0.553-0.531-0.968c0.092-0.414,0.48-0.688,0.892-0.648l57.274,5.262
			c0.303,0.028,0.568,0.245,0.643,0.557c0.076,0.312-0.062,0.626-0.32,0.788L275.566,25.623z M265.801,37.113
			c-0.006-0.336,0.15-0.636,0.395-0.826l4.593-3.576c0.258-0.199,0.608-0.266,0.935-0.147c0.329,0.119,0.556,0.396,0.625,0.712
			l1.996,9.175c0.055,0.25-0.047,0.52-0.275,0.669c-0.228,0.148-0.516,0.133-0.723-0.018l-7.123-5.176
			C265.972,37.743,265.807,37.447,265.801,37.113 M221.851,12.078c0.484-0.615,1.3-0.814,1.993-0.545l44.896,17.389
			c0.233,0.09,0.489,0.12,0.753,0.074c0.255-0.044,0.48-0.155,0.664-0.309c0.205-0.189,0.313-0.475,0.264-0.769
			c-0.052-0.304-0.261-0.542-0.527-0.647L216.594,6.268c20.25,7.347,38.385,13.935,58.736,21.341
			c-0.041,1.725-0.102,3.565-0.16,5.354c-0.039,1.234-0.081,2.48-0.115,3.701l-1.401-6.572c-0.079-0.372-0.343-0.695-0.728-0.836
			c-0.383-0.14-0.793-0.062-1.094,0.172l-24.431,19.021c-0.312,0.241-0.716,0.36-1.136,0.296c-0.42-0.065-0.771-0.299-0.996-0.623
			l-23.484-33.979C221.361,13.531,221.365,12.691,221.851,12.078"/>
	</g>
</g>
</svg>
